<svg width="26" height="26" viewBox="0 0 26 26" fill="none" xmlns="http://www.w3.org/2000/svg">
<path d="M11.5664 1.63836C11.6984 1.37041 11.9028 1.14478 12.1565 0.987003C12.4101 0.829226 12.7029 0.745605 13.0016 0.745605C13.3003 0.745605 13.593 0.829226 13.8467 0.987003C14.1003 1.14478 14.3047 1.37041 14.4368 1.63836L17.5248 7.89596L24.432 8.89916C24.7275 8.94207 25.0051 9.06683 25.2334 9.25932C25.4617 9.45181 25.6316 9.70435 25.7238 9.98837C25.816 10.2724 25.827 10.5766 25.7553 10.8665C25.6836 11.1563 25.5323 11.4204 25.3184 11.6288L20.32 16.5008L21.5008 23.3792C21.5512 23.6734 21.5183 23.9759 21.4058 24.2524C21.2933 24.5289 21.1056 24.7684 20.8641 24.9439C20.6226 25.1193 20.3368 25.2237 20.039 25.2452C19.7412 25.2667 19.4434 25.2045 19.1792 25.0656L13.0032 21.8176L6.82397 25.0656C6.55979 25.204 6.26215 25.2659 5.96466 25.2442C5.66717 25.2225 5.38167 25.118 5.14039 24.9427C4.89912 24.7673 4.71167 24.5279 4.59922 24.2517C4.48676 23.9754 4.45377 23.6732 4.50397 23.3792L5.68318 16.4992L0.684775 11.6288C0.47085 11.4204 0.319501 11.1563 0.24785 10.8665C0.1762 10.5766 0.187107 10.2724 0.279338 9.98837C0.37157 9.70435 0.541444 9.45181 0.769743 9.25932C0.998043 9.06683 1.27566 8.94207 1.57117 8.89916L8.47837 7.89596L11.5664 1.63996V1.63836Z" fill="currentColor"/>
</svg>